<?xml version="1.0" standalone="no"?>
<!DOCTYPE svg PUBLIC "-//W3C//DTD SVG 20010904//EN"
 "http://www.w3.org/TR/2001/REC-SVG-20010904/DTD/svg10.dtd">
<svg version="1.0" xmlns="http://www.w3.org/2000/svg"
 width="160.000000pt" height="100.000000pt" viewBox="0 0 160.000000 160.000000"
 preserveAspectRatio="xMidYMid meet">

<g transform="translate(0.000000,160.000000) scale(0.100000,-0.100000)"
fill="#000000" stroke="none">
<path d="M0 800 l0 -800 800 0 800 0 0 800 0 800 -800 0 -800 0 0 -800z m965
747 c11 -2 25 -6 32 -10 6 -4 23 -8 37 -9 14 -1 26 -6 26 -11 0 -4 5 -5 10 -2
6 3 22 -2 38 -12 15 -11 47 -28 72 -38 25 -10 63 -32 85 -49 54 -40 152 -142
160 -166 4 -11 11 -20 16 -20 5 0 9 -7 9 -15 0 -8 4 -15 9 -15 8 0 24 -33 24
-50 0 -3 6 -9 12 -15 13 -10 59 -125 50 -125 -2 0 3 -16 11 -35 11 -27 11 -35
2 -35 -10 0 -10 -2 -1 -8 15 -10 22 -133 11 -219 -12 -104 -69 -264 -102 -285
-6 -4 -7 -8 -2 -8 5 0 3 -7 -4 -15 -7 -8 -10 -15 -7 -15 5 0 -21 -33 -80 -99
-37 -42 -55 -37 -20 5 26 31 80 124 72 124 -2 0 9 21 25 47 17 26 30 55 30 65
0 10 5 18 11 18 5 0 7 5 4 10 -3 5 -2 10 3 10 5 0 9 6 10 13 1 6 8 45 15 85
21 110 13 275 -15 309 -6 7 -8 13 -5 13 3 0 -1 21 -9 46 -7 26 -11 50 -8 55 3
5 0 9 -5 9 -6 0 -11 6 -11 13 0 7 -8 22 -19 33 -10 11 -21 29 -25 40 -8 26
-151 176 -159 167 -4 -3 -7 -2 -7 4 0 11 -130 102 -133 94 -1 -2 -13 2 -27 9
-14 8 -29 15 -35 17 -145 41 -172 45 -296 40 -75 -2 -135 -10 -150 -17 -22
-12 -23 -12 -10 3 7 10 19 17 26 17 7 0 18 6 25 14 6 8 26 17 43 19 32 4 223
0 262 -6z m-655 -186 c0 -5 -7 -14 -15 -21 -8 -7 -15 -22 -15 -34 0 -11 -18
-41 -40 -65 -22 -25 -40 -50 -40 -58 0 -7 -4 -13 -8 -13 -10 0 -80 -150 -88
-190 -13 -59 -18 -117 -17 -194 0 -72 4 -92 17 -102 13 -9 14 -13 4 -16 -10
-4 -7 -23 12 -84 14 -43 28 -80 32 -82 5 -2 8 -10 8 -18 0 -8 11 -26 24 -39
13 -13 22 -26 19 -29 -3 -3 1 -12 8 -19 8 -8 25 -29 39 -47 36 -47 107 -113
138 -129 15 -7 36 -21 47 -31 19 -16 135 -68 165 -74 8 -1 33 -8 55 -14 45
-12 128 -21 223 -24 114 -4 75 -27 -54 -32 -75 -3 -188 16 -273 46 -36 12 -68
25 -71 28 -3 3 -21 13 -40 23 -64 33 -79 43 -146 102 -58 52 -174 206 -174
232 0 5 -8 24 -19 43 -29 54 -53 177 -53 269 0 87 10 179 20 196 4 6 8 21 10
35 4 32 75 179 99 205 10 12 19 27 21 34 1 7 21 30 42 51 22 21 40 43 40 49 0
6 7 11 15 11 8 0 15 -4 15 -9z m150 -178 c12 -27 23 -52 24 -58 1 -5 12 -32
24 -59 12 -27 22 -51 22 -54 0 -16 76 -182 84 -182 14 0 51 44 65 79 8 17 17
31 21 31 5 0 19 17 31 38 13 20 26 39 30 42 4 3 9 12 11 19 8 37 68 69 68 37
0 -8 6 -21 13 -28 22 -25 95 -137 102 -158 3 -11 11 -20 16 -20 5 0 9 -5 9
-10 0 -6 9 -20 19 -31 l19 -21 7 24 c4 12 18 46 30 73 12 28 37 92 55 143 18
50 36 92 39 92 4 0 7 8 8 18 3 34 23 72 38 72 8 0 15 -8 15 -17 1 -63 -1 -490
-3 -593 -2 -106 -4 -125 -18 -128 -11 -2 -29 18 -55 63 -21 36 -42 65 -47 65
-4 0 -13 14 -18 30 -6 17 -15 30 -20 30 -5 0 -9 9 -9 20 0 47 -22 15 -55 -80
-8 -25 -21 -58 -29 -75 -23 -50 -34 -78 -50 -125 -9 -25 -22 -65 -31 -89 -9
-24 -14 -46 -11 -48 2 -3 -5 -16 -17 -29 -21 -25 -52 -33 -45 -12 3 7 -1 24
-8 37 -7 14 -11 28 -8 33 3 4 1 8 -5 8 -11 0 -24 27 -66 135 -15 39 -32 81
-38 95 -6 14 -11 27 -11 30 -1 3 -14 38 -31 79 -29 73 -29 73 -47 51 -10 -12
-16 -26 -13 -30 3 -4 -2 -10 -10 -14 -8 -3 -15 -12 -15 -21 0 -8 -6 -15 -14
-15 -8 0 -18 -10 -22 -22 -17 -53 -103 -144 -104 -110 -1 4 -1 88 -1 187 -1
365 2 533 8 539 13 13 23 4 43 -41z"/>
<path d="M449 1040 c-6 -313 -3 -435 10 -435 8 0 40 38 72 85 45 68 55 89 47
103 -5 10 -36 85 -68 165 l-59 147 -2 -65z"/>
<path d="M1126 988 c-19 -51 -38 -104 -42 -118 -3 -14 -15 -42 -26 -63 -17
-34 -17 -39 -3 -67 9 -17 21 -30 27 -30 6 0 8 -3 5 -7 -6 -5 34 -68 53 -83 4
-3 10 -14 13 -24 4 -10 10 -17 12 -14 3 3 6 96 6 207 1 144 4 201 13 201 6 0
6 4 -3 9 -9 6 -12 21 -9 45 7 60 -9 41 -46 -56z"/>
<path d="M784 993 c-16 -21 -33 -41 -37 -44 -5 -3 -9 -10 -9 -15 -1 -13 -78
-127 -96 -141 -15 -13 -5 -49 58 -198 45 -104 68 -165 65 -165 -3 0 4 -15 15
-32 11 -18 20 -40 20 -49 0 -9 6 -22 14 -29 12 -9 16 -6 21 24 4 19 13 37 21
40 8 3 14 13 14 22 0 18 36 121 69 197 11 26 21 51 22 55 1 4 10 29 20 56 19
46 19 50 2 75 -10 14 -17 29 -15 33 1 4 -6 9 -16 13 -9 3 -24 18 -32 34 -44
85 -70 128 -88 144 -20 18 -21 17 -48 -20z"/>
</g>
</svg>
